<?xml version="1.0"?>
<svg xmlns:rdf="http://www.w3.org/1999/02/22-rdf-syntax-ns#" xmlns="http://www.w3.org/2000/svg" xmlns:cc="http://web.resource.org/cc/" xmlns:dc="http://purl.org/dc/elements/1.1/" id="svg2" viewBox="0 0 225.82 388.22" version="1.0">
  <g id="layer1" transform="translate(-562.99 -18.401)">
    <path id="path2652" d="m665.89 18.401l-0.13 2.438c-0.05 1.341-0.16 5.386-0.25 9l-0.12 6.562-3.69-3.812c-4.26-4.438-4.83-4.615-4.81-1.563 0.01 1.238 1.75 4.144 3.84 6.469 3.36 3.724 3.83 4.898 4.03 9.844 0.16 3.734-0.14 5.402-0.84 4.969-0.58-0.359-1.03-1.302-1.03-2.094 0-0.793-0.45-1.438-1-1.438s-1-1.742-1-3.875c0-4.438-2.52-7.54-4.09-5.062-0.51 0.79-0.71 1.965-0.47 2.625 0.53 1.457-2.35 0.507-4.28-1.406-0.73-0.719-1.9-1.282-2.63-1.282-2.7 0-2.26 2.821 1.03 6.594 3.92 4.488 4.13 5.383 1.53 6.063-1.27 0.333-1.71 1.11-1.37 2.406 0.56 2.152 3.24 2.535 5.06 0.719 1.36-1.362 1.4-1.29 1.63 2.468 0.19 3.137 0.01 3.208-3.41 1.25-3.35-1.916-4-1.868-4 0.407 0 1.06 1.46 3.069 3.25 4.468 2.44 1.909 2.71 2.415 1.12 2-1.37-0.36-2.32-0.001-2.71 1.032-0.86 2.243-1.56 2.058-8.22-2.282-3.27-2.129-6.44-3.696-7.03-3.468-2.09 0.797-0.76 4.614 2.15 6.218l2.94 1.594-2.69 0.313c-1.46 0.175-2.9 0.94-3.19 1.687-0.56 1.462 1.94 2.895 3.44 1.969 0.5-0.309 0.94-0.083 0.94 0.5 0 0.582 0.79 1.081 1.75 1.125 1.27 0.057 1.36 0.222 0.34 0.625-1.06 0.42-0.85 0.986 0.91 2.312l2.34 1.75-4.18 0.719c-4.31 0.728-5.29 2.335-2.72 4.469 0.97 0.804 1.99 0.884 3.12 0.25 1.89-1.056 5.44-0.465 5.44 0.906 0 0.486 0.9 0.906 2 0.906s2-0.45 2-1 1.01-0.987 2.25-0.968l2.25 0.031-2.47 2.031c-1.92 1.596-2.16 2.218-1.09 2.875 1.5 0.928 4.09 0.25 5.37-1.406 0.47-0.599 0.59 0.152 0.25 1.687-0.5 2.29-0.27 2.75 1.41 2.75 1.11 0 2.05-0.562 2.09-1.25 0.06-0.853 0.25-0.8 0.63 0.157 0.4 1.023 0.91 0.744 1.84-1l1.28-2.407 1.25 2.75c0.69 1.509 0.94 3.068 0.53 3.469-0.4 0.402-3.98 0.893-7.97 1.094-6.66 0.336-7.62 0.135-12.03-2.656-4.38-2.78-7.59-3.245-7.59-1.094 0 0.473 1.24 1.577 2.75 2.437l2.75 1.563-3.5-0.656c-3.46-0.634-9.29-3.634-11.84-6.125-0.73-0.708-2.19-1.282-3.25-1.282-2.04 0-2.57 1.934-0.97 3.532 0.6 0.6-0.94 1.084-4.19 1.281-2.83 0.172-5.53 0.539-5.97 0.812-3.29 2.033 4.82 5.723 10.69 4.875l4.03-0.562-2.81 1.594c-1.71 0.962-2.71 2.262-2.5 3.282 0.48 2.44 4.8 1.62 7.56-1.44 1.28-1.424 3.02-2.358 4-2.124 1.38 0.329 1.2 0.661-0.91 1.534-3.4 1.4-4.43 3.05-2.37 3.84 0.89 0.34 1.4 1.2 1.12 1.91-0.27 0.71 0.18 1.54 0.97 1.84s1.44 0.16 1.44-0.31c0-0.82 3.23-2.22 5.66-2.47 0.63-0.07 2.1-0.99 3.25-2.03s2.09-1.56 2.09-1.16c0 1.04-2.19 3.08-4.78 4.47-1.23 0.66-2.22 1.64-2.22 2.19 0 1.89 3.08 2.18 4.97 0.47 1.8-1.64 1.86-1.62 1.34 0.37-0.76 2.92 1.29 2.63 3.31-0.47 1.27-1.93 1.9-2.24 2.54-1.25 0.69 1.08 0.98 1.07 1.68-0.03 0.48-0.73 1.72-1.22 2.75-1.09 4.04 0.51 9.34-3.09 9.5-6.47 0.09-1.82 0.19-1.766 0.82 0.41 0.59 2.06 0.1 3.06-2.85 5.72-1.96 1.76-6.34 4.67-9.75 6.46l-6.19 3.25-4.81-2.4c-2.64-1.32-5.37-2.5-6.06-2.63-1.78-0.34-1.54 1.6 0.5 4 1.57 1.86 1.57 1.91 0.03 0.72-0.94-0.72-2.09-1.07-2.56-0.78-0.48 0.29-2.12-0.11-3.66-0.91-3.68-1.91-4.83-1.81-4.15 0.32 0.44 1.41-0.03 1.72-2.44 1.65-1.65-0.05-3.23-0.35-3.53-0.65-1.22-1.22-4.44 0.57-4.44 2.47 0 1.53 0.49 1.88 2.09 1.46 2.01-0.52 2.02-0.47 0.35 1.38-1.81 2-1.52 2.27 2.28 1.97 1.74-0.14 2.1 0.19 1.59 1.53-0.54 1.41-0.19 1.64 1.88 1.25 2.07-0.4 2.42-0.16 2.03 1.34-0.54 2.05 0.1 2.27 2.59 0.94 2.45-1.3 5.55 2.84 3.53 4.72-1.12 1.05-1.47 1.01-1.9-0.13-0.3-0.78-2.07-1.42-4.03-1.5-1.93-0.07-3.27 0.27-2.97 0.75 0.3 0.49-0.34 0.64-1.44 0.35-2.53-0.66-2.6 0.86-0.13 2.4 1.32 0.82 1.72 1.92 1.38 3.72-0.6 3.17-0.76 3.19-4.44 0.1-1.63-1.38-3.62-2.5-4.4-2.5-1.68 0-1.77 0.49-0.47 2.9 1.05 1.96 0.39 2.01-7.19 0.57-2.47-0.48-3.75-0.34-3.75 0.37 0 1.29 5.19 4.16 7.56 4.16 1.37 0 1.45 0.25 0.44 1.47-0.99 1.19-0.96 1.61 0.22 2.06 0.8 0.31 1.88 0.47 2.37 0.37 2.09-0.39 3.39 0.18 3.16 1.35-0.15 0.76 0.81 1.22 2.5 1.18 2.12-0.04 2.76 0.42 2.78 2 0.03 1.98 0.11 1.96 2-0.31 1.56-1.87 1.97-2.01 1.97-0.69 0 0.92 0.45 1.41 1 1.07s1.43 0.54 1.97 1.97c0.54 1.42 1.67 2.83 2.5 3.15s1.53 1.2 1.53 1.97 0.72 1.41 1.62 1.41c0.91 0 2.21 0.76 2.91 1.72 1.2 1.63 1.42 1.62 3.63-0.25l2.34-1.97-1.78 2.09c-1.08 1.28-4.41 2.73-8.63 3.75-8.8 2.13-10.93 2.06-14.53-0.31-3.33-2.2-4.96-1.79-4.06 1.03 0.5 1.58 0.12 1.94-2.25 1.94-1.58 0-3.32-0.45-3.88-1-0.67-0.68-1.64-0.54-2.93 0.4-1.86 1.36-1.81 1.49 1.28 3.25 2.33 1.33 3.07 2.35 2.65 3.66-0.36 1.17-0.08 1.74 0.79 1.62 2.89-0.39 4.01 0.1 3.46 1.54-0.95 2.5 2.7 3.69 5.47 1.78 1.83-1.26 2.09-1.32 1.19-0.19-1.69 2.1-0.06 4.3 2.56 3.47 3.79-1.2 4.81 0.72 1.1 2.06-4.77 1.72-9.53 1.69-11.32-0.09-1.97-1.98-5.03-2-4.28-0.03 0.47 1.21-0.23 1.37-3.9 0.87-5.38-0.74-6.06 0.93-1.1 2.72 2.41 0.87 3.26 1.71 2.94 2.94-0.53 2.04 2.63 3.17 5.06 1.81 1.33-0.74 1.66-0.45 1.66 1.53 0 2.03 0.37 2.37 2.16 1.91 1.76-0.47 2.02-0.27 1.46 1.18-0.54 1.43-0.26 1.71 1.35 1.29 1.11-0.29 2.03-0.13 2.03 0.37 0 1.75 2.12 0.87 4.78-1.97 3.21-3.42 5.11-4.18 7.47-2.97 2.74 1.41 2.05 2.55-1.25 2.07-3.44-0.51-3.95 1.01-1.47 4.56 1.45 2.07 1.45 2.22-0.41 2.22-1.09 0-2.67 0.67-3.5 1.5-0.82 0.82-2.16 1.5-3 1.5-0.83 0-1.77 0.42-2.09 0.93-0.32 0.52-2.33 0.91-4.47 0.88s-4.47 0.31-5.19 0.75c-0.71 0.44-2.76 0.71-4.53 0.59-2.66-0.18-3.26 0.18-3.53 2.07-0.23 1.63-1.01 2.29-2.81 2.37-1.38 0.06-2.95 0.23-3.5 0.38-0.55 0.14-1.79 0.16-2.75 0.06s-1.75 0.22-1.75 0.69c0 1.32 5.53 4.28 8.03 4.28 2.19 0 2.23 0.05 0.47 2-1.77 1.95-1.75 2 0.81 2 1.96 0 2.48 0.37 2.03 1.53-0.48 1.26-0.06 1.43 2.28 0.87 1.59-0.37 3.1-0.66 3.38-0.65 3.12 0.06 3.84 0.4 3.37 1.62-1.04 2.72 1.55 2.65 3.04-0.09 1.41-2.61 1.49-2.64 1.53-0.53 0.02 1.23 0.4 2.28 0.81 2.34 6.11 0.89 7.11 0.6 8.34-2.37l1.25-3 0.88 2.37 0.87 2.41 1.94-2.5c1.92-2.5 1.92-2.5 1.94-0.25 0.03 3.03 1.81 2.86 2.59-0.25 0.35-1.38 1.07-2.5 1.6-2.5 0.52 0 0.62 0.48 0.25 1.09-0.48 0.77 0.29 0.9 2.56 0.41 2.41-0.53 3.16-0.41 2.84 0.53-0.61 1.84-6.88 4.97-9.97 4.97-1.46 0-2.86 0.56-3.12 1.25-0.3 0.76-2.25 1.2-5.1 1.15-2.54-0.04-4.62 0.27-4.62 0.69 0 1.92 3.47 4.01 6.22 3.72 1.63-0.17 3.04 0.08 3.12 0.59 0.27 1.67-5.59 2.6-19.84 3.16-16.06 0.62-22.5 1.33-22.5 2.41 0 0.41-1.13 0.54-2.5 0.28-1.42-0.28-2.5-0.02-2.5 0.59 0 1.4 3.27 3.16 5.91 3.16 1.13 0 2.09 0.45 2.09 1s-0.49 1-1.06 1c-0.58 0-2.04 0.93-3.25 2.09l-2.19 2.13 3.25-0.44c2.15-0.3 3.25-0.04 3.25 0.78 0 0.74 0.8 1.03 2 0.72 1.12-0.29 2-0.03 2 0.59 0 1.62 2.54 1.38 4-0.37 0.68-0.83 1.68-1.5 2.25-1.5s0.32 0.8-0.59 1.81c-0.91 1-1.66 2.13-1.66 2.5 0 1.06 3.81 0.8 4.5-0.31 0.99-1.61 2.31-1.16 3 1 0.8 2.53 1.94 2.51 5.56-0.07l2.91-2.06-0.63 3.06c-0.75 3.77 1.07 4.07 5.13 0.88 2.67-2.1 2.74-2.1 1.69-0.13-1.25 2.33-0.65 3.43 1.43 2.63 0.78-0.3 2.09 0.01 2.91 0.69 1.03 0.85 1.5 0.9 1.5 0.12 0-0.62 0.67-1.12 1.5-1.12 0.82 0 1.5 0.62 1.5 1.4 0 0.97 0.89 1.34 2.75 1.13 10.41-1.18-3.05 4.87-15.16 6.81-7.91 1.27-8.7 1.22-11.31-0.5-1.54-1.02-3.34-1.84-4.03-1.84-2.07-0.01-1.41 1.99 1 3.03 1.65 0.71 1.05 0.79-2.25 0.28-2.48-0.38-5.63-0.63-7-0.56-1.38 0.07-4.73-0.53-7.44-1.32-2.7-0.78-5.07-1.3-5.25-1.12-1.04 1.04 5.36 5.17 8.94 5.75l4.25 0.69-3.75 0.12c-2.61 0.09-3.75 0.58-3.75 1.63 0 0.82 0.79 1.57 1.75 1.65 0.96 0.09 2.2 0.25 2.75 0.38s1.64 0.28 2.44 0.34c1.06 0.09 0.92 0.49-0.5 1.53-2.47 1.81-1.3 3.11 1.47 1.63 1.72-0.92 2.09-0.83 2.09 0.53 0 1.28 0.72 1.54 3.25 1.19 1.79-0.25 4.15-0.79 5.25-1.19 1.97-0.72 1.94-0.72 0.03 0.84-1.95 1.59-1.53 1.96 1.72 1.63 1-0.1 1.75 0.51 1.75 1.4 0 2.14 0.81 1.97 3.19-0.68l2.03-2.25-1.63 2.72c-0.88 1.49-1.59 3.17-1.59 3.75 0 1.54 4.91 0.4 7.25-1.69 1.96-1.76 1.98-1.72 1.22 0.72-1.06 3.39-2.29 4.1-11.5 6.87-7.66 2.3-8.12 2.33-12.25 0.75-4.51-1.72-10.72-2.21-10.72-0.84 0 0.44 0.52 1.36 1.19 2.03 0.81 0.81-0.53 0.68-4.1-0.38-2.92-0.86-5.99-1.32-6.84-1-1.31 0.51-1.19 1 0.75 3.07l2.28 2.43-3.37-0.96c-4.35-1.25-9.64-1.25-10.41 0-0.79 1.28 5.89 4.02 9.84 4.03h3.16l-2.94 2.34c-2.9 2.32-2.87 5.36 0.03 4.25 0.97-0.37 1.41 0.23 1.41 1.94 0 1.77 0.52 2.47 1.91 2.47 1.06 0 2.62 0.68 3.46 1.53 1.28 1.27 1.87 1.3 3.57 0.25 1.12-0.7 2.06-1.62 2.06-2.03 0-0.42 0.79 0.03 1.78 1 1.92 1.85 2.46 4.25 0.97 4.25-0.49 0-0.56 0.48-0.19 1.09 0.48 0.77-0.26 0.91-2.44 0.44-1.99-0.44-3.12-0.32-3.12 0.37 0 0.62-1.95 1.1-4.5 1.1-4.69 0-5.57 0.86-3 3 1 0.83 3.12 1.05 6.25 0.65l4.75-0.59-3.72 1.97c-2.58 1.37-3.54 2.45-3.12 3.53 0.37 0.97 1.2 1.29 2.21 0.87 0.9-0.37 2.3-0.77 3.13-0.9 0.82-0.14 0.94-0.05 0.25 0.19-2.53 0.87-1.22 2.47 1.5 1.84 1.97-0.46 2.33-0.36 1.28 0.34-2.64 1.76-0.29 2.27 2.88 0.63 1.7-0.88 3.09-1.18 3.09-0.66s-0.56 1.16-1.25 1.41c-0.69 0.24-0.9 0.82-0.47 1.28s2.07 0.35 3.66-0.25c2.36-0.89 2.81-0.83 2.37 0.31-0.38 1.01-0.03 1.19 1.31 0.72 1.57-0.55 1.66-0.42 0.57 0.75-1.03 1.09-4.47 1.35-15.75 1.19-8.73-0.13-14.44 0.17-14.44 0.75 0 0.53 0.7 0.97 1.56 0.97 0.87 0 2.2 0.63 2.97 1.4 1.21 1.21 1.18 1.49-0.16 2-0.85 0.33-2.97 0.59-4.71 0.6-3.68 0.01-6.2 1.32-5.32 2.75 1.09 1.76 6.06 2.08 10.16 0.65 5.47-1.9 5.77-1.79 2.94 1.03-3.53 3.53-3.27 5.66 0.53 4.57 1.63-0.47 3.43-1.15 4-1.5s1.07 0.19 1.15 1.18c0.09 1 0.23 2.32 0.29 2.97s0.41 1.51 0.78 1.88c0.79 0.79 6.81-2.59 6.81-3.81 0-0.47 0.41-0.58 0.94-0.25 0.61 0.38 0.61 1.5 0 3.12-0.53 1.39-0.94 2.98-0.94 3.53 0 1.32 4.73-2.1 9.47-6.84 3.54-3.54 4.04-2.94 0.75 0.9-0.81 0.95-1.17 2.48-0.81 3.41 0.57 1.5 0.9 1.41 3.18-0.72l2.6-2.37-0.35 2.5c-0.31 2.29-0.99 2.59-8.34 3.81-5.16 0.85-8.54 0.98-9.53 0.37-2.51-1.54-7.97-2.46-7.97-1.34 0 0.56 0.79 1.22 1.75 1.47 0.96 0.24-0.5 0.24-3.25 0-4.02-0.35-4.76-0.2-3.75 0.81 1.91 1.93 1.48 2.65-1.25 2.13-3.23-0.62-7.77 0.53-7 1.78 0.33 0.53 1.62 0.97 2.87 0.97 4.28 0 3.68 1.37-1.53 3.47-8.87 3.56-6.93 6.21 2.19 3 4.62-1.63 6.43-1.35 3.03 0.46-1.14 0.62-2.06 1.83-2.06 2.69 0 1.21 0.61 1.42 2.66 0.91 2.36-0.59 2.53-0.5 1.37 0.9-2.69 3.25 0.16 3.26 4.63 0 2.08-1.52 2.16-1.5 1.59 0.72-0.54 2.09-0.43 2.19 1.09 0.94 1.51-1.23 1.61-1.18 1 0.5-0.59 1.66-0.36 1.6 1.82-0.37 2.54-2.32 4.11-2.13 3.15 0.37-0.76 1.99 1.64 1.73 5.44-0.59 1.81-1.11 3.25-1.49 3.25-0.88 0 0.68 1.05 0.86 2.75 0.47 1.86-0.42 2.26-0.33 1.25 0.28-0.83 0.5-3.98 1.41-7 2.03-6.51 1.35-8.54 2.44-7.53 4.07 0.69 1.11 2.03 0.99 8.03-0.63 1.53-0.41 1.24 0.22-1.25 2.63-1.79 1.72-3.25 3.34-3.25 3.62 0 0.99 5.56-0.24 8.75-1.94 3.51-1.86 4.04-1.29 1.72 1.78-2.03 2.69-1.84 3.87 0.53 3.25 1.3-0.34 2 0 2 0.91 0 1.87 0.92 1.77 3.25-0.34 1.85-1.67 1.93-1.66 1.59 0.25-0.53 3.05 5.02 2.13 7.97-1.32l2.31-2.68-0.65 3.25c-0.87 4.3 1.64 4.41 5.53 0.25 1.54-1.65 2.93-3 3.12-3 0.2 0 0.42 1.16 0.5 2.59 0.23 3.93 1.86 4.99 3.94 2.56 1.65-1.92 1.88-1.95 3.1-0.37 1.2 1.56 1.34 1.54 1.9-0.47 0.37-1.3 1.16-1.97 1.97-1.66 0.86 0.33 1.6-0.45 2.03-2.15 0.47-1.85 0.93-2.31 1.47-1.44 0.43 0.7 1.72 1.42 2.88 1.59 1.62 0.25 2.58-0.66 4.28-4.15 2.19-4.51 4.5-6.25 3.31-2.5-0.77 2.42-0.19 2.48 3.03 0.37 1.36-0.89 2.5-2.57 2.56-3.75 0.1-1.71 0.23-1.78 0.6-0.37 0.76 2.91 2.31 0.89 2.34-3.07 0.03-2.99 0.21-3.35 1.03-1.93 0.56 0.96 1.96 1.75 3.1 1.75 1.97 0 2.04 0.36 1.4 7.75-0.45 5.16-1.49 9.37-3.12 12.59-0.96 1.89-1.76 3.57-2.16 4.5h24.88c1.1-0.88 0.6-2.43-0.54-5.16-1.77-4.24-2.45-12.91-1.06-13.37 0.55-0.18 1.77 1 2.75 2.66 1.83 3.08 4.07 4.22 3.03 1.53-1.18-3.08 0.68-1.4 2.03 1.84 1.08 2.58 1.95 3.35 3.75 3.22 1.3-0.1 3.01 0.29 3.79 0.87 1.01 0.76 1.52 0.73 1.81-0.12 0.26-0.79 1.06-0.54 2.34 0.75 2.58 2.57 3.86 2.45 3.25-0.31-0.29-1.32-0.14-1.82 0.35-1.19 1.15 1.48 4.34 2.55 4.34 1.47 0-1.01 5.52-0.65 8.41 0.53 1.52 0.62 1.8 0.43 1.31-0.84-0.34-0.89-0.1-1.79 0.56-2.04 0.91-0.33 0.92-0.77-0.03-1.78-2.27-2.4-1.33-2.71 2.41-0.81 4.13 2.11 5.28 1.8 3.28-0.84-1.07-1.42-1.09-1.53-0.03-0.6 0.72 0.65 1.93 0.95 2.68 0.66 0.76-0.29 1.41-0.13 1.41 0.37 0 0.51 0.61 1.77 1.37 2.82 1.2 1.64 1.64 1.71 3.07 0.53 1.43-1.19 1.84-1.05 3.25 0.97l1.62 2.31 0.91-2.41c0.83-2.23 0.99-2.28 2.19-0.65 1.58 2.14 2.29 2.17 4.25 0.22 1.22-1.22 1.28-1.83 0.31-3-0.67-0.81-0.93-1.47-0.56-1.47 0.36 0 0.13-1.02-0.5-2.25-0.98-1.89-0.61-1.78 2.21 0.78 6.23 5.62 6.64 5.83 8.41 4.06 0.88-0.88 1.25-2.15 0.84-2.84-0.41-0.72 0.1-0.6 1.19 0.28 5.29 4.24 10.64 5.08 7.03 1.09-1.62-1.8-1.57-1.94 1.03-2.59l2.72-0.69-2.93-2.37c-3.84-3.14-1.79-3.15 3.71 0 2.4 1.36 4.94 2.49 5.63 2.5 2.02 0.01 1.44-1.58-1-2.75-2.03-0.98-1.87-1.1 1.78-1.16 2.23-0.04 4.93-0.72 6-1.53 1.85-1.4 1.82-1.47-1.03-1.5-4.28-0.05-19.52-2.82-22.69-4.13-3.88-1.6-4.62-4.04-0.78-2.59 3.37 1.27 5.08 0.22 2.59-1.59-1.44-1.06-0.97-1.18 2.85-0.88 4.87 0.39 5.91-0.84 2.28-2.69-1.95-0.99-1.62-1.11 2.62-0.9 5.73 0.28 7.34-1.6 2.41-2.82l-3.28-0.81 3.25-0.37c3.81-0.46 4.14-1.49 1-3.1-1.84-0.94-1.06-1.07 4.25-0.62 5.98 0.5 6.32 0.42 4.53-1-1.07-0.85-2.72-1.53-3.69-1.53-0.96 0-2.03-0.5-2.4-1.1-0.42-0.68 0.2-1.03 1.68-0.9 4.18 0.34 6.88 0.01 6.88-0.88 0-0.48-3.17-1.18-7.03-1.56s-6.81-1.06-6.53-1.5c0.27-0.45 3.15-1.41 6.4-2.13 6.13-1.36 10.01-3.39 8.78-4.62-0.62-0.63-6.19 0.28-13.62 2.25-2.28 0.6-2.23 0.42 0.91-2.28 5.15-4.44 2.24-4.9-5.19-0.81-7.46 4.1-11.74 4.43-20 1.59-9.38-3.23-24.59-10.95-25.72-13.06-1.4-2.62-0.61-2.55 1.94 0.18 1.12 1.21 2.06 1.82 2.06 1.38 0-0.45 0.67-0.25 1.5 0.44 1.24 1.02 1.5 0.93 1.5-0.57s0.51-1.32 3.12 1.13l3.13 2.94-0.59-3.22c-0.6-3.18-0.56-3.21 2.12-2.06 1.5 0.63 3.39 1.67 4.22 2.31 3.88 2.98 4.33 2.92 3.62-0.6-0.53-2.65-0.42-3.11 0.54-2.15 1.74 1.74 5.84 1.54 5.84-0.28 0-1.87 1.61-1.96 2.69-0.16 0.44 0.74 2.05 2.12 3.56 3.09 2.27 1.47 2.75 1.52 2.75 0.32 0-0.81-0.9-2.26-2-3.25-1.1-1-2-2.29-2-2.85 0-0.55 0.25-0.71 0.59-0.37s1.33-0.08 2.19-0.94c1.08-1.08 2.71-1.41 5.31-1.06 2.59 0.35 3.93 0.08 4.28-0.85 0.4-1.02 1.31-1.12 3.82-0.4 8.82 2.53 10.44-0.36 1.93-3.44-5.75-2.08-6.47-3.14-1.09-1.59 6.84 1.96 15.74 0.47 11.97-2-0.83-0.55-3.53-1.06-6-1.13-3.82-0.11-4.07-0.21-1.59-0.75 1.6-0.35 3.11-1.26 3.37-2.03 0.39-1.17-1.19-1.3-9.69-0.72-10 0.69-10.16 0.69-8.93-1.28 1.83-2.93 0.57-3.44-4.41-1.75-2.69 0.91-6.15 1.3-8.84 0.97-5.78-0.71-24.91-7.12-27.16-9.09-2.35-2.07-2.22-3.51 0.25-2.72 1.12 0.35 2 0.17 2-0.41 0-1.08 1.5-0.77 6.5 1.41 1.65 0.72 5.27 1.32 8.06 1.34s5.49 0.12 6 0.22c2.34 0.45 2.59-0.24 0.85-2.31-1.26-1.5-0.86-1.33 1.15 0.5 3.46 3.13 4.44 3.39 4.44 1.22 0-1.32 0.32-1.32 2.56 0.15 1.51 0.99 2.86 1.3 3.25 0.75 0.37-0.52 2.01-1.52 3.66-2.25 2.87-1.26 2.92-1.36 1.06-2.72-2.26-1.65-1.69-1.79 1.88-0.43 1.93 0.73 2.59 0.66 2.59-0.32 0-0.79 2.54-1.83 6.5-2.65 3.57-0.75 6.5-1.77 6.5-2.25 0-0.49 0.42-0.59 0.97-0.25 0.54 0.33 1.79 0.16 2.75-0.38 1.52-0.85 1.39-1.08-1.03-1.69-2.09-0.52-2.62-1.13-2.19-2.5 0.42-1.33-0.02-1.87-1.72-2.12-1.62-0.24-0.47-0.94 3.94-2.34 6.83-2.18 8.51-4.15 2.53-2.97-5.53 1.08-19.25 1.33-19.25 0.34 0-0.47 0.45-0.84 1-0.84s1-0.46 1-1c0-0.55-2.14-0.96-4.75-0.91-6.56 0.13-17.05-2.06-17.69-3.72-0.36-0.93 0.29-1.37 1.97-1.37 1.36 0 2.47-0.44 2.47-0.97 0-0.54 0.67-0.73 1.5-0.41 0.82 0.32 1.5 0.05 1.5-0.59 0-0.77 0.75-0.62 2.22 0.4 1.22 0.86 3.36 1.55 4.75 1.54l2.53-0.04-2.31-1.93-2.28-1.91 4.78-0.31 4.81-0.35-3.5-1.68-3.5-1.69 3.06-0.03c1.95-0.03 3.95-0.95 5.44-2.53 1.29-1.38 2.81-2.5 3.41-2.5 0.59 0 1.68-0.92 2.37-2.03 1.83-2.93-0.5-3.52-6.25-1.57-6.2 2.11-7.48 2.05-6.84-0.4 0.63-2.42 0.46-2.43-5.82-0.38-4.77 1.56-5.27 1.52-12.9-0.65-10.29-2.94-12.93-5.68-5-5.22 0.82 0.04 1.8-0.41 2.19-1.03 0.49-0.8 1.32-0.61 2.71 0.65 1.57 1.42 2.88 1.66 6.07 1.13 4.54-0.77 4.82-1.15 2.31-3.22-1.8-1.48-1.13-1.44 3.16 0.28 1.53 0.61 1.79 0.43 1.28-0.91-0.48-1.23-0.09-1.65 1.43-1.65 1.4 0 1.91-0.48 1.54-1.44-0.31-0.79-0.04-1.66 0.62-1.94 0.84-0.35 0.73-0.92-0.44-1.87-1.51-1.25-1.45-1.54 0.75-3.66 3.61-3.47 2.94-4.19-2.34-2.5-13.12 4.21-17.94 4.46-21.16 1.03-1.82-1.94-1.93-2.47-0.72-2.94 0.82-0.31 2.84-0.06 4.5 0.57 4.28 1.61 5.19 0 1.63-2.88-2.5-2.02-2.67-2.39-1-2.25 3.5 0.3 5.5-0.09 5.5-1.12 0-0.55-0.79-1.03-1.75-1.07-1.42-0.05-1.37-0.24 0.34-0.93 1.16-0.47 2.38-1.56 2.72-2.44 0.54-1.39 0.34-1.46-1.59-0.38-3.49 1.96-24.33 1.66-28.72-0.4-3.07-1.44-3.23-1.65-1.16-1.72 1.9-0.07 2.29-0.48 1.85-2.16-0.49-1.87-0.38-1.95 1.12-0.65 2.19 1.87 5.19 2.92 5.19 1.81 0-0.48 0.9-0.66 2-0.38 1.12 0.3 2 0.03 2-0.59 0-0.61 1.12-1.09 2.5-1.09 3.32 0 3.16-1-0.69-4.16l-3.22-2.62 5.35 0.84c5.51 0.87 7.51 0.51 6.47-1.19-1.03-1.66 1.66-3.87 4.68-3.87 3.41 0 3.88-1.65 0.66-2.35-1.28-0.27-0.74-0.45 1.25-0.37 2.28 0.08 3.41-0.27 3.25-1.06-0.14-0.67 0.23-1.22 0.84-1.22 0.76 0 0.72-0.51-0.15-1.57-0.83-0.99-2.24-1.39-3.88-1.06-1.41 0.29-2 0.3-1.31 0 2.31-1 1.29-2.6-1.25-1.97-2.03 0.51-2.34 0.31-1.81-1.06 0.47-1.23 0.26-1.45-0.72-0.84-0.74 0.45-2.49 0.91-3.91 1.03-1.41 0.11-3.69 0.52-5.06 0.9l-2.5 0.69 2.75-2.34c3.18-2.73 3.64-4.33 0.81-2.81-2.79 1.49-4.83 1.36-3.28-0.19 2.25-2.25 1.36-4.02-0.94-1.88-1.17 1.1-3.53 2.66-5.25 3.47-6.11 2.9-22.59-1.05-22.59-5.4 0-0.88-0.56-2.13-1.22-2.79-0.8-0.8-0.82-1.18-0.09-1.18 0.6 0 1.34 0.67 1.65 1.5 0.37 0.95 1.8 1.45 3.88 1.37 1.8-0.06 4.29 0.22 5.53 0.63 1.85 0.6 2.25 0.33 2.25-1.38v-2.06l3.41 2c2.44 1.44 3.61 1.71 4.12 0.87 0.4-0.63 0.1-1.58-0.66-2.09-1.18-0.8 4.65-0.69 8.63 0.16 0.55 0.11 2.02-0.13 3.28-0.53 2.11-0.68 2.15-0.89 0.69-2.5-1.47-1.63-1.39-1.79 0.97-2.38 2.89-0.72 3.46-2.6 0.81-2.66-1.1-0.02-0.64-0.53 1.25-1.4 1.65-0.76 4.32-2.47 5.94-3.81l2.9-2.44-3.65-0.69c-2.03-0.38-3.69-1.12-3.69-1.66 0-0.56-1.16-0.7-2.75-0.31-2.4 0.6-2.61 0.51-1.5-0.84 1.93-2.35-0.95-3.06-3.91-0.97-1.38 0.98-4.39 1.71-7.28 1.75-3.94 0.06-4.5-0.14-2.78-0.91 1.95-0.87 2.14-1.68 1.28-5.5-0.04-0.18-1.58 0.61-3.44 1.75-1.85 1.15-4.88 2.07-6.75 2.07-6.23-0.02-16.96-4.18-23.78-9.22-2.62-1.95-2.06-2.35 0.97-0.72 1.58 0.84 1.95 0.7 1.97-0.75 0.03-1.71 0.08-1.72 1.06-0.03 0.57 0.97 1.44 1.52 1.94 1.22 0.5-0.31 2.05 0.18 3.44 1.09 2.5 1.64 2.51 1.61 2.53-1.22 0.01-1.58 0.35-2.36 0.75-1.75 0.88 1.31 4.65 3.41 6.16 3.41 0.58 0 1.13-1.02 1.18-2.25 0.1-2.14 0.12-2.13 0.78 0.25 0.39 1.37 0.91 2.29 1.16 2.06s1.39 0.08 2.53 0.69c1.69 0.9 2.33 0.75 3.44-0.78 0.75-1.04 1.75-1.64 2.22-1.35s0.55-0.63 0.19-2.06c-0.63-2.49-0.54-2.56 2.09-1.56 3.25 1.23 4.26 0.62 2.5-1.5-1.05-1.27-0.95-1.5 0.53-1.5 1.68 0 1.66-0.11 0.03-1.91-0.94-1.05-1.29-2.15-0.78-2.47s1.72 0.3 2.69 1.38c1.52 1.68 2.5 1.83 6.37 1.06 0.21-0.04-0.1-0.67-0.72-1.41-1.3-1.57-0.53-2.65 1.91-2.65 0.95 0 2.8-0.89 4.09-1.97l2.38-1.97-3-0.19c-1.65-0.1-4.1-0.09-5.44 0.03-2.11 0.2-2.27 0.01-1.12-1.37 2.18-2.64 0.64-2.63-3.22 0-4.19 2.85-6.72 3.34-4.72 0.94 1.06-1.28 1-1.44-0.38-0.91-1.9 0.73-2.18-0.63-0.46-2.34 2.56-2.57-0.16-2.18-3.32 0.46-6.21 5.21-6.98 5.38-14 3.25-7.36-2.22-12.29-5.01-13.78-7.78-0.91-1.69-0.7-1.93 1.47-1.81 1.37 0.08 2.7 0.84 2.97 1.69 0.27 0.84 1.44 1.6 2.59 1.69 1.69 0.12 1.99-0.28 1.53-2-0.5-1.92-0.29-1.85 1.79 0.56 1.28 1.49 3.32 2.72 4.56 2.72 1.96 0 2.19-0.38 1.69-2.91-0.76-3.78 1.59-4.83 4.03-1.78 1.67 2.08 7.29 3.54 7.31 1.91 0-0.41-1.46-1.94-3.25-3.44-2.49-2.08-2.83-2.73-1.47-2.75 0.98-0.02 2.03 0.61 2.34 1.44 0.32 0.82 0.96 1.28 1.41 1 0.46-0.29 1.09-0.06 1.44 0.5 0.34 0.55 1.83 1.03 3.28 1.03 2.52 0 2.55-0.08 0.69-1.44-1.87-1.38-1.84-1.46 0.87-2.5 1.55-0.59 3.35-1.08 4-1.09 0.65-0.02 0.06-0.68-1.31-1.44-2.44-1.35-2.41-1.38 1.37-1.03 2.46 0.22 4.41-0.16 5.32-1.07 2.2-2.19 0.64-3.43-4.32-3.43-2.76 0-4.25-0.42-3.87-1.03 1.26-2.04-2.43-2.08-6.59-0.07-5.1 2.47-6.05 2.59-5.29 0.6 0.37-0.95-0.01-1.5-1-1.5-0.98 0-1.36-0.56-1-1.5 0.68-1.76 0.33-1.82-2.96-0.57-2.15 0.82-2.38 0.69-1.94-1 0.52-2.01-1.15-2.71-2.25-0.93-0.35 0.55-2.46 1.97-4.72 3.12-3.63 1.85-4.56 1.94-8.13 0.88-3.32-1-3.74-1.38-2.34-2.16 0.94-0.52 1.72-1.63 1.72-2.47 0-1.18-1.02-1.46-4.53-1.25-3.41 0.21-4.98-0.21-6.44-1.69-2.19-2.22-4.32-10.144-2.94-10.996 0.86-0.527 1.33 1.604 0.97 4.346-0.09 0.7 0.79 2.62 1.97 4.28 1.72 2.41 2.44 2.77 3.56 1.84 0.78-0.64 1.44-2.33 1.5-3.78 0.1-2.08 0.24-2.21 0.63-0.62 0.76 3.1 3.35 5.5 5.97 5.5 2.04 0 2.23-0.28 1.34-1.94-1.31-2.44-1.31-3.36-0.03-2.56 0.55 0.34 1 0.14 1-0.44s0.45-1.06 1-1.06 1 0.63 1 1.4c0 1.8 5.84 6.79 7.06 6.03 0.51-0.31 0.94-1.43 0.94-2.5 0-1.06 0.45-1.93 1.03-1.93s0.79-0.57 0.44-1.25c-0.36-0.69 0.19-0.23 1.22 1.03s2.22 1.97 2.62 1.56c0.41-0.41 1.72-0.89 2.94-1.06 2.71-0.38 6.75-2.37 6.75-3.35 0-0.39-1.34-1.26-2.97-1.93-1.63-0.68-2.87-1.75-2.75-2.379 0.12-0.637-1.15-1.194-2.84-1.25-3.5-0.115-8.59-2.491-6.69-3.125 0.69-0.228 1.25-1.064 1.25-1.843 0-1.586-5-1.991-6.56-0.532-1.51 1.413-5.44 2.337-5.44 1.282 0-0.528 1.14-1.237 2.56-1.594 2.13-0.535 2.37-0.923 1.38-2.125-0.99-1.189-0.84-1.443 0.68-1.469 2.23-0.038 5.99-2.698 5.1-3.594-0.35-0.345-2.69-0.843-5.19-1.125-5-0.564-4.98-0.548-3.5-3.312 0.96-1.793 1.2-1.82 3.41-0.375 2.22 1.459 2.41 1.409 3.03-0.531 0.36-1.141 1.08-1.816 1.59-1.5 0.51 0.315 0.94 0.113 0.94-0.469 0-0.583 0.9-1.063 2-1.063s2-0.64 2-1.406c0-1.529-2.11-2.594-5.09-2.594-2.27 0-2.58-1.835-0.44-2.656 0.82-0.315 1.28-0.903 1.03-1.312-0.25-0.41 0.66-1.33 2.03-2.063 3.37-1.804 2.54-3.469-1.75-3.469h-3.53l2.53-3.312c1.97-2.586 2.24-3.556 1.28-4.5-0.95-0.941-1.92-0.428-4.5 2.375-3.06 3.323-3.37 3.451-4.44 1.75-0.63-1.009-1.59-1.813-2.12-1.813-1.19 0-4.35 5.596-5.03 8.938-0.51 2.47-9.71 10.356-11.1 9.5-0.39-0.244-0.58-2.913-0.46-5.938 0.12-3.024-0.18-5.5-0.66-5.5s-0.73-1.661-0.56-3.687c0.26-3.074 0.76-3.819 3.09-4.438 2.42-0.641 2.73-0.498 2.22 1.094-0.91 2.874 1.53 3.606 3.47 1.031 1.03-1.361 1.99-1.872 2.37-1.25 0.69 1.103 4.66 0.52 4.66-0.687 0-0.93-4.98-5.587-5.84-5.469-0.37 0.05-1.45-0.125-2.41-0.375-2.82-0.738-0.99-2.144 2-1.531 5.01 1.028 9.53 0.836 9.97-0.438 0.23-0.687-0.23-1.25-1.03-1.25-0.81 0-2.01-0.681-2.69-1.5s-1.64-1.239-2.13-0.937c-0.48 0.301-0.87 0.195-0.87-0.25s1.35-1.713 3-2.813c3.03-2.022 3.86-3.5 1.97-3.5-1.82 0-8.37 3.029-9.25 4.282-0.52 0.741-0.62 0.356-0.25-0.969 0.33-1.191 0.17-2.43-0.35-2.75-1.08-0.673-5.12 5.76-5.12 8.156 0 0.885-0.3 1.327-0.66 0.969-0.35-0.358-1.28 0.108-2.03 1.062-1.19 1.512-1.29 1.103-0.84-3.156 0.41-3.957 1.35-5.887 5-10.156 2.48-2.9 4.53-5.92 4.53-6.719 0-2.403-5.02-0.823-6.06 1.906-1.65 4.343-3.47 2.837-3.1-2.562 0.28-3.94-0.08-5.428-1.75-7.219l-2.09-2.219zm-6.78 35.094c0.46 0.027 1.54 0.895 2.78 2.281 2.06 2.303 3 4.381 3 6.657 0 1.826-0.19 3.343-0.41 3.343-0.53 0-1.82-3.098-2.28-5.468-0.2-1.072-1.03-2.666-1.84-3.563s-1.47-2.257-1.47-3c0-0.186 0.07-0.259 0.22-0.25zm-2.44 14.688c1.9 0.139 6.52 3.323 7.25 5.25 1.3 3.426 0.56 4.065-1.69 1.437-0.98-1.152-2.34-2.094-3.03-2.094-1.16 0-3.89-3.867-3.15-4.468 0.14-0.117 0.35-0.145 0.62-0.125zm27.31 8.156c0.24 0.001 0.54 0.044 0.85 0.125 1.65 0.431 1.26 1.025-2.6 3.969-2.5 1.907-5.42 3.546-6.47 3.625-1.04 0.078-1.87 0.473-1.87 0.906s-0.51 0.812-1.09 0.812c-0.59 0-0.93-1.012-0.75-2.25 0.27-1.947 0.84-2.22 4.09-1.937 2.89 0.251 3.75-0.037 3.75-1.25 0-0.867 0.67-1.563 1.5-1.563 0.82 0 1.5-0.632 1.5-1.406 0-0.675 0.37-1.035 1.09-1.031zm-11.59 14.312l2.34 1.157c1.29 0.627 3.43 0.863 4.75 0.531 1.37-0.342 2.41-0.171 2.41 0.406 0 0.561-0.43 1.031-0.94 1.031-0.5 0-1.56 0.233-2.34 0.532s-2.49-0.408-3.81-1.563l-2.41-2.094zm10.97 2.469c0.23 0.034 0.56 0.266 1.03 0.656 1.12 0.928 1.5 0.943 1.5 0.063 0-0.65 0.49-0.86 1.12-0.469 0.8 0.493 0.59 1.129-0.68 2.063-2.58 1.883-3.44 1.679-3.44-0.782 0-1.108 0.09-1.587 0.47-1.531zm15.06 3.656c0.86 0 1.31 0.45 0.97 1-0.8 1.294-2.5 1.294-2.5 0 0-0.55 0.67-1 1.53-1zm-23.53 16.004c0.55 0 1 2.25 1 5 0 5.07-0.15 5.5-1.34 4.31-1.07-1.07-0.76-9.31 0.34-9.31zm-7.63 13.34c0.36-0.06 0.63 0.16 0.63 0.59 0 0.59-0.45 1.07-1 1.07-1.28 0-1.28-0.71 0-1.5 0.14-0.09 0.26-0.14 0.37-0.16zm8.07 2.13c0.06-0.01 0.15 0.08 0.22 0.25 0.27 0.67 0.28 2.02 0.03 3-0.26 0.97-0.48 0.43-0.5-1.22-0.02-1.24 0.07-2.02 0.25-2.03zm-12.44 0.53c0.55 0 1 0.19 1 0.43 0 0.25-0.45 0.73-1 1.07s-1 0.14-1-0.44 0.45-1.06 1-1.06zm-5 2c0.55 0 1 0.19 1 0.43 0 0.25-0.45 0.73-1 1.07s-1 0.14-1-0.44 0.45-1.06 1-1.06zm-20.81 0.03c0.68 0.06 1.53 0.52 2.18 1.34 2.03 2.56 5.39 2.9 7.25 0.72 1.65-1.92 4-1.95 2.82-0.03-0.32 0.51 0.11 0.94 0.93 0.94 0.83 0 1.79-0.45 2.13-1 0.81-1.31 2.5-1.32 2.5 0 0 0.56-1.24 1.51-2.75 2.09s-5.32 1.28-8.44 1.56c-4.96 0.45-5.8 0.28-6.75-1.5-0.59-1.11-1.06-2.5-1.06-3.09 0-0.76 0.5-1.1 1.19-1.03zm91.75 52.97c0.58 0 1.06 0.45 1.06 1 0 1.28-0.71 1.28-1.5 0-0.34-0.55-0.15-1 0.44-1zm-83.6 12c0.62 0-0.57 0.9-2.62 2-3.63 1.94-5.72 2.49-5.72 1.5 0-0.62 6.87-3.5 8.34-3.5zm86.35 42.72c1.1-0.01 2.19 0.1 2.87 0.37 1.37 0.54 0.7 0.76-2.31 0.81-2.34 0.04-4.25-0.1-4.25-0.31 0-0.53 1.85-0.86 3.69-0.87zm22.37 5.4c0.35-0.01 0.77 0.04 1.13 0.19 0.8 0.32 0.54 0.54-0.63 0.59-1.05 0.05-1.64-0.2-1.31-0.53 0.17-0.16 0.47-0.23 0.81-0.25zm0.25 24.91c0.05-0.02 0.12 0 0.19 0 0.55 0 1.67 0.43 2.5 0.97 0.82 0.53 1.05 0.97 0.5 0.97s-1.68-0.44-2.5-0.97c-0.72-0.47-1-0.88-0.69-0.97zm-174.19 40.4c0.48-0.07 0.61 0.14 0.35 0.57-0.34 0.54-1.02 1-1.53 1-1.44 0-1.14-0.75 0.59-1.41 0.22-0.09 0.44-0.13 0.59-0.16zm16.16 8.6l2.28 2.44 2.25 2.43 1.72-2.62c1.56-2.39 1.78-2.44 2.69-0.81 0.74 1.33 1.2 1.43 1.78 0.5 0.55-0.9 0.96-0.65 1.44 0.87 0.68 2.15 2.56 3.01 2.56 1.16 0-0.55 1.24-1.01 2.75-1h2.75l-3 1.59c-1.93 1.02-4.52 1.39-7.25 1.09-2.33-0.25-3.99-0.04-3.69 0.44 0.79 1.28-0.7 1.04-3.78-0.56-1.57-0.82-2.81-1-3-0.44-0.18 0.53-1.14 0.66-2.12 0.28-1.66-0.63-1.62-0.84 0.43-3.03l2.19-2.34zm23.25 1.09c0.21 0 0.41 0 0.59 0.06 0.75 0.25 0.29 0.71-1.06 1.07-1.66 0.43-2.05 0.3-1.31-0.44 0.44-0.44 1.15-0.68 1.78-0.69zm-10.16 41.22c0.36-0.06 0.63 0.16 0.63 0.59 0 0.59-0.45 1.07-1 1.07-1.28 0-1.28-0.71 0-1.5 0.14-0.09 0.26-0.14 0.37-0.16z"/>
  </g>
  <metadata>
    <rdf:RDF>
      <cc:Work>
        <dc:format>image/svg+xml</dc:format>
        <dc:type rdf:resource="http://purl.org/dc/dcmitype/StillImage"/>
        <cc:license rdf:resource="http://creativecommons.org/licenses/publicdomain/"/>
        <dc:publisher>
          <cc:Agent rdf:about="http://openclipart.org/">
            <dc:title>Openclipart</dc:title>
          </cc:Agent>
        </dc:publisher>
      </cc:Work>
      <cc:License rdf:about="http://creativecommons.org/licenses/publicdomain/">
        <cc:permits rdf:resource="http://creativecommons.org/ns#Reproduction"/>
        <cc:permits rdf:resource="http://creativecommons.org/ns#Distribution"/>
        <cc:permits rdf:resource="http://creativecommons.org/ns#DerivativeWorks"/>
      </cc:License>
    </rdf:RDF>
  </metadata>
</svg>
